<svg viewBox="0 0 32 32" xmlns="http://www.w3.org/2000/svg"><g data-name="kakao talk chat media social"><path d="M29.88 13.06a1 1 0 0 0-1 1c0 5.42-5.78 9.83-12.88 9.83a15.91 15.91 0 0 1-2.19-.16 1 1 0 0 0-.89.34 13.88 13.88 0 0 1-4 3 8.32 8.32 0 0 0 .71-3.91 1 1 0 0 0-.56-.81c-3.75-1.83-6-4.92-6-8.28C3.12 8.63 8.9 4.22 16 4.22a14.15 14.15 0 0 1 10.87 4.57A1 1 0 1 0 28.4 7.5C25.64 4.2 21 2.22 16 2.22c-8.21 0-14.88 5.31-14.88 11.84 0 4 2.44 7.6 6.56 9.8a8.82 8.82 0 0 1-1.29 3.91.85.85 0 0 0-.09.23 1.39 1.39 0 0 0 .54 1.52 1.35 1.35 0 0 0 1.52.07 18.49 18.49 0 0 0 5.72-3.8 18.71 18.71 0 0 0 1.92.11c8.21 0 14.88-5.31 14.88-11.83a1 1 0 0 0-1-1.01Z" fill="#ffffff" class="fill-000000"></path><path d="M10.79 17.62a1 1 0 0 0 1.29-.62l1.06-2.76L14.21 17a1 1 0 0 0 .93.64 1.13 1.13 0 0 0 .36-.06 1 1 0 0 0 .58-1.3l-2-5.18a1 1 0 0 0-1.87 0l-2 5.18a1 1 0 0 0 .58 1.34ZM17.51 10.5a1 1 0 0 0-1 1v5.18a1 1 0 0 0 1 1h2.56a1 1 0 0 0 0-2h-1.56V11.5a1 1 0 0 0-1-1ZM8.46 17.68a1 1 0 0 0 1-1V12.5h.75a1 1 0 0 0 0-2h-3.5a1 1 0 0 0 0 2h.75v4.18a1 1 0 0 0 1 1ZM22.46 10.5a1 1 0 0 0-1 1v5.18a1 1 0 0 0 2 0v-1.2L25 17.32a1 1 0 0 0 .77.36 1 1 0 0 0 .76-1.68l-2-2.34 1.8-1.41a1 1 0 0 0-1.23-1.58L23.46 12v-.5a1 1 0 0 0-1-1Z" fill="#ffffff" class="fill-000000"></path></g></svg>