<?xml version="1.0" standalone="no"?>
<!DOCTYPE svg PUBLIC "-//W3C//DTD SVG 20010904//EN"
 "http://www.w3.org/TR/2001/REC-SVG-20010904/DTD/svg10.dtd">
<svg version="1.0" xmlns="http://www.w3.org/2000/svg"
 width="2048.000000pt" height="2048.000000pt" viewBox="0 0 2048.000000 2048.000000"
 preserveAspectRatio="xMidYMid meet">

<g transform="translate(0.000000,2048.000000) scale(0.100000,-0.100000)"
fill="#000000" stroke="none">
<path d="M16515 18661 c-11 -5 -72 -11 -135 -15 -419 -26 -812 -113 -1265
-281 -1117 -416 -2188 -1224 -2652 -2002 -30 -51 -61 -98 -69 -104 -11 -9 -41
-6 -137 14 -431 92 -846 148 -1312 178 -201 12 -1007 5 -1310 -12 -447 -25
-911 -90 -1360 -188 -77 -17 -150 -31 -163 -31 -16 0 -30 13 -50 46 -387 658
-1124 1300 -2028 1766 -672 346 -1417 567 -1918 569 -55 0 -109 4 -121 9 -13
5 -45 6 -71 2 -48 -7 -50 -9 -82 -70 -129 -243 -255 -748 -317 -1267 -85 -716
-83 -1483 5 -2239 83 -709 264 -1334 469 -1616 17 -24 31 -55 31 -70 0 -15
-24 -78 -54 -141 -184 -387 -300 -790 -352 -1219 -24 -197 -24 -562 -1 -760
178 -1476 1190 -2758 2822 -3573 497 -248 1100 -459 1705 -597 96 -22 198 -46
225 -54 l50 -13 -30 -12 c-16 -6 -37 -15 -45 -20 -8 -4 -58 -20 -110 -36 -245
-71 -588 -211 -808 -329 -307 -165 -461 -309 -518 -483 -32 -97 -29 -161 10
-274 44 -126 105 -211 270 -374 129 -127 158 -161 189 -224 31 -61 37 -84 37
-135 0 -93 -18 -107 -287 -215 -121 -48 -245 -105 -275 -125 -80 -52 -154
-136 -191 -213 -29 -61 -32 -77 -32 -158 0 -82 3 -96 34 -159 94 -192 346
-327 641 -343 130 -7 254 13 395 63 160 58 148 63 228 -96 76 -149 184 -319
270 -424 32 -38 57 -77 57 -88 0 -70 -117 -187 -253 -252 -208 -100 -431 -121
-801 -76 -145 18 -347 8 -467 -23 -183 -48 -275 -111 -329 -228 -28 -62 -32
-78 -27 -129 12 -138 118 -245 280 -281 46 -10 72 -10 120 -1 34 7 98 16 142
22 98 12 706 5 825 -9 149 -19 252 -14 336 14 232 78 478 269 622 483 41 60
54 63 133 28 69 -30 122 -101 140 -186 4 -19 16 -71 28 -114 45 -169 62 -334
70 -678 l7 -326 33 -66 c64 -130 212 -211 412 -223 121 -7 222 14 327 68 82
42 118 77 159 154 27 49 27 53 34 310 4 143 10 283 14 310 28 208 76 336 145
386 62 46 374 46 438 0 76 -54 132 -337 150 -761 8 -173 10 -188 35 -235 41
-77 77 -111 159 -154 105 -54 206 -75 327 -68 200 12 348 93 412 223 l33 66 7
321 c9 391 32 578 94 768 22 64 35 85 88 140 35 36 102 88 152 119 265 162
511 404 689 677 129 197 238 443 297 667 53 205 71 335 76 556 5 205 1 263
-41 530 -7 47 -9 89 -5 94 5 6 86 -3 206 -22 540 -87 1117 -131 1321 -103 37
6 108 15 159 21 354 41 605 255 684 585 43 179 21 346 -68 525 -39 78 -63 111
-133 181 -73 74 -100 93 -190 137 -147 72 -269 89 -420 57 -159 -33 -308 -122
-403 -240 -26 -33 -70 -105 -98 -160 -95 -191 -183 -232 -501 -234 -125 -1
-148 2 -240 29 -192 55 -447 167 -582 254 -48 31 -155 111 -238 179 -240 193
-256 206 -316 245 -74 48 -107 78 -93 86 6 4 99 27 208 51 724 164 1384 408
1968 727 1257 688 2121 1682 2456 2827 97 333 143 653 143 1001 0 574 -133
1121 -405 1670 -43 88 -79 164 -79 170 0 6 11 27 24 48 227 360 395 1040 471
1912 94 1081 -17 2307 -270 2985 -85 228 -133 286 -210 256z m12 -251 c85
-171 189 -610 247 -1040 82 -600 86 -1528 11 -2203 -52 -475 -154 -959 -263
-1248 -40 -107 -118 -269 -128 -269 -9 0 -40 42 -128 170 -107 157 -212 291
-347 444 -63 71 -118 134 -123 141 -7 9 1 36 22 83 97 209 165 504 209 897 26
230 26 883 0 1105 -36 312 -96 582 -168 756 -33 80 -49 94 -101 94 -58 0 -378
-59 -513 -95 -709 -186 -1465 -701 -1776 -1209 -37 -61 -58 -86 -72 -86 -11 0
-110 31 -221 69 -110 37 -285 92 -388 121 -103 29 -192 57 -199 61 -15 9 26
80 134 231 112 157 229 292 416 479 406 406 891 749 1461 1033 523 260 1019
424 1475 485 188 26 218 28 335 27 l95 -1 22 -45z m-12111 -20 c758 -106 1680
-511 2403 -1058 353 -266 681 -585 903 -877 78 -104 178 -258 178 -277 0 -13
-20 -23 -87 -43 -189 -56 -470 -148 -595 -195 -72 -28 -142 -50 -154 -50 -16
0 -35 18 -70 68 -310 439 -915 872 -1529 1094 -154 55 -341 103 -545 138 -188
32 -231 36 -260 20 -39 -21 -121 -265 -165 -493 -48 -244 -66 -447 -72 -788
-7 -401 8 -629 66 -1007 26 -170 37 -213 117 -459 l66 -203 -28 -34 c-182
-219 -290 -364 -414 -558 -41 -65 -80 -118 -87 -118 -26 0 -111 159 -175 329
-109 289 -211 773 -263 1248 -64 574 -71 1325 -19 1923 43 496 153 1031 268
1304 30 71 26 70 177 63 74 -4 202 -16 285 -27z m11261 -1330 c209 -420 240
-1434 67 -2135 -31 -123 -90 -306 -108 -330 -11 -16 -22 -9 -122 81 -235 213
-449 379 -724 560 -297 195 -573 346 -1007 552 -83 39 -154 76 -157 81 -15 24
123 229 234 345 387 407 1100 783 1690 889 14 3 43 4 65 3 37 -1 42 -4 62 -46z
m-10675 -96 c141 -29 320 -85 493 -154 400 -159 791 -401 1054 -655 145 -140
275 -307 269 -346 -2 -16 -66 -53 -283 -163 -336 -171 -489 -259 -735 -420
-302 -200 -536 -384 -805 -635 -162 -151 -155 -150 -198 -21 -103 306 -155
607 -178 1018 -26 470 35 1033 135 1257 12 27 29 66 36 85 27 71 32 72 212 34z
m5949 -699 c308 -22 495 -41 734 -76 719 -103 1450 -311 2060 -587 217 -98
267 -123 427 -208 760 -406 1386 -927 1840 -1529 90 -120 231 -331 264 -398
14 -26 41 -73 61 -105 50 -78 149 -287 216 -458 236 -596 303 -1232 196 -1871
-90 -544 -342 -1117 -705 -1604 -274 -367 -638 -728 -1029 -1020 -777 -578
-1754 -995 -2820 -1202 -255 -50 -585 -97 -815 -117 -69 -6 -174 -18 -235 -26
-390 -50 -1389 -40 -2000 22 -1487 149 -2844 689 -3835 1524 -162 137 -441
413 -570 565 -352 413 -621 883 -777 1355 -221 672 -229 1401 -22 2089 226
753 723 1472 1425 2060 307 257 671 502 1052 705 160 85 210 110 427 208 610
276 1341 484 2060 587 296 43 685 80 945 91 322 13 882 10 1101 -5z m1044
-9385 c155 -65 222 -109 463 -303 101 -82 228 -178 282 -213 132 -86 385 -205
573 -268 71 -24 242 -46 407 -53 127 -5 156 -3 234 16 49 12 120 38 159 58
101 54 155 112 218 238 112 225 259 325 481 325 150 0 250 -43 354 -151 115
-121 156 -225 158 -394 1 -176 -48 -301 -163 -416 -108 -108 -223 -151 -480
-180 -352 -38 -1281 57 -1766 181 -192 49 -230 63 -272 101 -59 51 -126 65
-156 31 -55 -61 -35 -134 52 -191 53 -34 153 -81 174 -81 5 0 47 -12 93 -26
l84 -26 15 -52 c26 -85 53 -264 66 -428 28 -371 -42 -745 -202 -1077 -79 -166
-144 -269 -251 -401 -48 -61 -88 -114 -88 -118 0 -32 -313 -292 -453 -377 -42
-25 -101 -68 -130 -95 -127 -116 -225 -408 -253 -760 -3 -47 -11 -90 -16 -97
-36 -46 -379 -65 -516 -29 -88 23 -95 32 -111 139 -44 280 -133 448 -262 493
-47 17 -82 19 -274 18 l-220 -2 -60 -40 c-125 -84 -204 -240 -244 -485 -16
-98 -18 -102 -51 -122 -30 -17 -56 -21 -185 -24 -82 -2 -179 2 -215 8 -36 6
-82 13 -104 16 -72 11 -80 30 -94 204 -17 215 -72 453 -134 575 -34 66 -116
143 -226 212 -278 173 -509 399 -666 654 -62 99 -186 344 -186 365 0 8 25 37
56 67 72 68 190 207 235 278 67 104 153 342 174 480 20 126 19 213 -4 341 -19
111 -47 183 -104 271 -47 74 -60 112 -54 159 10 76 65 124 184 163 63 21 74
33 80 89 5 40 2 46 -28 71 -30 25 -39 28 -83 22 -71 -8 -187 -66 -241 -121
-96 -96 -129 -235 -85 -358 12 -34 42 -91 66 -127 83 -122 116 -277 95 -439
-31 -241 -131 -447 -303 -627 -182 -189 -364 -270 -629 -281 -161 -6 -251 9
-365 63 -218 104 -262 271 -109 413 26 23 72 54 103 68 31 14 64 31 72 38 8 7
97 44 197 84 167 67 185 77 228 122 67 71 90 127 90 219 0 162 -71 285 -287
500 -130 130 -149 154 -188 232 -55 112 -65 201 -30 272 65 134 396 347 777
500 276 111 516 182 963 287 84 20 205 21 380 4 258 -24 748 -33 1330 -24 522
8 671 16 950 49 85 10 202 17 260 16 102 -2 109 -4 235 -56z m-3490 -3761 c47
-39 85 -76 85 -82 0 -14 -108 -155 -123 -160 -37 -13 -121 45 -153 105 -26 50
-18 82 36 147 28 34 55 61 60 61 6 0 48 -32 95 -71z m-345 -246 c19 -30 59
-77 88 -103 28 -27 52 -50 52 -53 0 -7 -101 -72 -149 -97 -56 -28 -100 -21
-136 22 -33 39 -51 83 -59 144 -9 68 7 93 74 120 80 34 90 31 130 -33z m-1185
-43 c3 -5 8 -62 11 -128 3 -87 1 -122 -7 -128 -20 -12 -241 -33 -284 -27 -46
6 -101 37 -115 63 -33 62 10 140 97 178 91 39 283 66 298 42z m381 -20 c22 -9
24 -15 24 -73 0 -35 3 -85 6 -111 l7 -46 -86 0 c-117 0 -129 10 -134 116 -3
45 0 91 6 108 l11 29 72 -7 c39 -4 81 -12 94 -16z m412 -62 c6 -42 23 -95 41
-130 17 -32 31 -61 31 -64 0 -4 -45 -5 -100 -2 -115 4 -140 19 -159 93 -15 59
-14 140 2 153 13 11 55 18 128 20 l45 2 12 -72z m3800 -840 c8 -8 12 -55 12
-144 0 -120 -2 -134 -23 -165 -13 -20 -47 -46 -82 -64 -56 -29 -64 -30 -189
-30 -127 0 -133 1 -191 31 -94 50 -99 61 -103 223 l-4 137 234 0 c142 0 249 4
273 11 54 15 59 15 73 1z m-2108 -16 c87 -8 214 -9 320 -2 l75 5 9 -96 c16
-172 -9 -232 -116 -280 -47 -21 -68 -24 -178 -24 -115 0 -130 2 -181 27 -102
48 -124 101 -113 266 3 59 9 111 12 116 2 4 25 5 51 2 25 -4 80 -10 121 -14z"/>
<path d="M9013 14355 c-64 -28 -86 -97 -54 -170 47 -106 248 -259 342 -259 69
-1 121 54 121 127 0 88 -66 175 -196 260 -87 58 -150 70 -213 42z"/>
<path d="M11510 14297 c-78 -32 -176 -101 -210 -149 -76 -105 -54 -210 49
-238 79 -21 202 27 319 124 92 76 121 148 85 215 -37 71 -139 91 -243 48z"/>
<path d="M14565 13693 c-176 -37 -617 -199 -973 -357 -685 -304 -1459 -743
-1809 -1025 -110 -89 -226 -205 -268 -269 -36 -55 -36 -94 3 -243 181 -691
638 -1170 1217 -1274 134 -24 344 -22 475 5 809 166 1454 948 1629 1976 54
318 49 652 -15 972 -46 229 -76 254 -259 215z m-313 -801 c40 -40 43 -45 46
-111 5 -87 -8 -127 -58 -176 -34 -33 -47 -39 -94 -43 -70 -6 -96 1 -137 35
-104 88 -86 247 36 325 24 15 44 18 98 16 64 -4 69 -6 109 -46z m-1615 -329
c-3 -16 -15 -71 -26 -123 -114 -513 213 -1066 734 -1239 149 -49 251 -64 400
-58 74 3 151 12 180 21 86 27 76 4 -46 -102 -204 -178 -434 -297 -674 -347
-108 -23 -303 -31 -405 -16 -412 61 -763 342 -974 781 -61 127 -136 343 -136
392 0 74 195 256 470 441 166 112 442 277 463 277 16 0 18 -5 14 -27z"/>
<path d="M5555 13646 c-43 -17 -63 -37 -71 -76 -3 -14 -17 -71 -31 -128 -47
-195 -63 -318 -70 -537 -4 -163 -2 -240 11 -345 99 -807 559 -1489 1221 -1810
914 -444 1951 -75 2434 863 57 112 142 324 165 412 15 59 15 61 -9 111 -23 47
-37 59 -177 151 -331 217 -655 400 -1083 609 -660 323 -1268 557 -1770 683
-274 68 -539 97 -620 67z m275 -277 c244 -30 776 -180 1067 -301 104 -43 105
-45 45 -131 -287 -417 -307 -1008 -50 -1510 150 -293 405 -535 655 -622 67
-24 84 -37 63 -50 -18 -11 -343 -7 -426 5 -360 53 -679 214 -961 483 -285 273
-496 643 -593 1041 -79 320 -89 671 -30 979 10 53 22 102 25 107 8 13 99 13
205 -1z m2797 -1170 c124 -60 160 -228 67 -316 -84 -79 -235 -44 -291 67 -27
52 -31 136 -9 178 44 85 142 115 233 71z"/>
<path d="M14930 11108 c-83 -43 -112 -123 -68 -187 71 -104 263 -49 285 82 16
101 -108 160 -217 105z"/>
<path d="M6485 10223 c-296 -38 -522 -182 -625 -398 -51 -108 -65 -170 -65
-295 1 -121 22 -206 85 -330 173 -344 572 -580 980 -580 336 0 606 147 724
393 56 116 70 178 69 297 -2 438 -429 846 -953 910 -82 10 -154 11 -215 3z
m338 -212 c311 -82 570 -321 632 -582 17 -74 19 -174 4 -238 -38 -168 -193
-314 -389 -366 -130 -36 -332 -28 -478 16 -289 90 -533 317 -597 559 -22 82
-19 218 6 292 53 159 212 290 404 332 98 22 312 15 418 -13z"/>
<path d="M13305 10149 c-380 -52 -718 -286 -864 -601 -55 -115 -74 -195 -74
-308 -1 -119 13 -181 69 -297 185 -387 751 -512 1229 -271 268 135 456 348
536 608 27 88 32 250 10 340 -62 256 -282 454 -573 516 -94 19 -244 25 -333
13z m303 -195 c196 -40 357 -169 411 -332 25 -74 28 -210 6 -292 -78 -292
-397 -544 -752 -591 -236 -31 -452 29 -587 165 -247 248 -150 657 214 903 202
137 478 194 708 147z"/>
<path d="M10298 10019 c-28 -16 -40 -47 -49 -128 -11 -100 -51 -179 -126 -253
-76 -75 -159 -123 -243 -142 -134 -31 -225 -17 -319 47 -61 43 -110 48 -141
17 -69 -69 -2 -169 158 -231 78 -31 241 -38 332 -14 155 39 308 139 406 266
25 32 51 59 59 59 8 0 34 -27 59 -59 98 -127 251 -227 406 -266 91 -24 254
-17 332 14 160 62 227 162 158 231 -31 31 -80 26 -141 -17 -94 -64 -185 -78
-319 -47 -84 19 -167 67 -243 142 -75 74 -115 153 -126 253 -9 82 -21 113 -51
129 -24 13 -130 13 -152 -1z"/>
<path d="M10250 6090 c-597 -36 -1114 -310 -1402 -745 -182 -275 -256 -575
-214 -864 43 -288 165 -521 381 -729 234 -226 536 -367 893 -418 194 -28 799
-12 1009 26 709 129 1213 672 1213 1309 0 351 -196 748 -494 1000 -271 229
-609 373 -976 416 -132 16 -207 17 -410 5z m534 -219 c694 -143 1173 -675
1143 -1271 -14 -288 -165 -575 -391 -744 -270 -203 -492 -290 -801 -316 -601
-51 -853 -35 -1136 75 -320 123 -549 320 -674 580 -65 134 -85 216 -92 380
-10 261 47 459 198 683 53 78 278 312 300 312 7 0 37 21 68 46 104 86 345 191
531 233 237 54 649 64 854 22z"/>
<path d="M16640 8077 c-51 -25 -60 -65 -61 -262 -1 -99 -4 -191 -8 -204 -6
-24 -8 -23 -58 26 -64 63 -145 185 -172 261 -32 88 -42 103 -93 129 -59 31
-98 25 -130 -20 -22 -31 -23 -40 -26 -307 -4 -312 0 -353 33 -386 34 -34 93
-33 125 1 22 23 25 38 31 146 4 66 9 122 12 125 2 3 51 -42 108 -99 120 -119
215 -187 264 -187 43 0 82 32 95 78 16 58 13 605 -3 645 -24 55 -72 78 -117
54z"/>
<path d="M17715 8056 c-29 -29 -38 -94 -33 -238 2 -87 6 -110 22 -127 24 -27
67 -27 91 -1 23 25 35 160 25 269 -7 64 -12 78 -34 98 -34 29 -41 29 -71 -1z"/>
<path d="M16986 7866 c-81 -30 -160 -111 -186 -191 -16 -50 -16 -138 2 -187
20 -57 104 -147 162 -174 219 -102 448 138 357 376 -27 72 -67 119 -131 154
-62 34 -147 43 -204 22z m143 -171 c59 -51 67 -152 15 -206 -23 -24 -36 -29
-74 -29 -73 0 -120 49 -120 125 0 110 103 173 179 110z"/>
<path d="M17714 7530 c-53 -21 -70 -91 -31 -128 51 -48 127 -10 127 63 0 49
-51 83 -96 65z"/>
</g>
</svg>
