<svg width="35" height="35" viewBox="0 0 35 35" fill="none" xmlns="http://www.w3.org/2000/svg">
<path d="M11.5389 27.3438C10.1718 28.0328 5.46863 25.5719 4.17801 24.3797C3.82801 22.5313 6.56238 11.2875 8.4327 9.41719C10.303 7.54687 14.2186 7.54688 14.2186 7.54688C14.5087 7.54688 14.7869 7.43164 14.992 7.22652C15.1971 7.0214 15.3124 6.74321 15.3124 6.45312C15.3124 6.16304 15.1971 5.88484 14.992 5.67973C14.7869 5.47461 14.5087 5.35938 14.2186 5.35938C14.0218 5.35938 9.36238 5.35938 6.87957 7.86406C4.8452 9.90937 0.612384 23.9203 2.50457 25.8234C3.42332 26.7313 7.86395 29.6297 10.9811 29.6297C11.514 29.6443 12.0426 29.5318 12.5233 29.3016C12.7809 29.1704 12.9762 28.9427 13.0663 28.668C13.1565 28.3934 13.1343 28.0942 13.0046 27.8359C12.8754 27.5764 12.6484 27.3788 12.3736 27.2865C12.0988 27.1942 11.7986 27.2148 11.5389 27.3438Z" fill="white"/>
<path d="M28.1203 7.86406C25.6375 5.39219 20.9781 5.35938 20.7812 5.35938C20.4912 5.35938 20.213 5.47461 20.0079 5.67973C19.8027 5.88484 19.6875 6.16304 19.6875 6.45312C19.6875 6.74321 19.8027 7.0214 20.0079 7.22652C20.213 7.43164 20.4912 7.54688 20.7812 7.54688C21.875 7.54688 25.0359 7.88594 26.5672 9.41719C28.4375 11.2875 31.1719 22.5422 30.8219 24.3797C29.5313 25.5719 24.8281 28.0328 23.4609 27.3438C23.2013 27.2148 22.9011 27.1942 22.6263 27.2865C22.3514 27.3788 22.1245 27.5764 21.9953 27.8359C21.8656 28.0942 21.8434 28.3934 21.9336 28.668C22.0237 28.9427 22.219 29.1704 22.4766 29.3016C22.9573 29.5318 23.4859 29.6443 24.0187 29.6297C27.1359 29.6297 31.5766 26.7313 32.4953 25.8234C34.3875 23.9203 30.1547 9.90937 28.1203 7.86406Z" fill="white"/>
<path d="M13.125 21.4922C14.3331 21.4922 15.3125 20.3904 15.3125 19.0312C15.3125 17.6721 14.3331 16.5703 13.125 16.5703C11.9169 16.5703 10.9375 17.6721 10.9375 19.0312C10.9375 20.3904 11.9169 21.4922 13.125 21.4922Z" fill="white"/>
<path d="M21.875 21.4922C23.0831 21.4922 24.0625 20.3904 24.0625 19.0312C24.0625 17.6721 23.0831 16.5703 21.875 16.5703C20.6669 16.5703 19.6875 17.6721 19.6875 19.0312C19.6875 20.3904 20.6669 21.4922 21.875 21.4922Z" fill="white"/>
<path d="M26.2499 13.0156C26.4358 13.016 26.6187 12.969 26.7814 12.879C26.944 12.7891 27.0811 12.6592 27.1796 12.5015C27.256 12.3795 27.3075 12.2436 27.3312 12.1016C27.355 11.9597 27.3505 11.8144 27.3179 11.6742C27.2854 11.534 27.2256 11.4015 27.1418 11.2845C27.058 11.1675 26.9519 11.0681 26.8296 10.9922C17.6093 5.2281 8.55303 10.7515 8.17022 10.9922C8.04813 11.0683 7.94223 11.1677 7.85857 11.2848C7.77491 11.4018 7.71512 11.5342 7.68262 11.6744C7.61698 11.9574 7.66648 12.255 7.82022 12.5015C7.97396 12.7481 8.21936 12.9235 8.50242 12.9891C8.78548 13.0548 9.08303 13.0053 9.3296 12.8515C9.65772 12.6437 17.6202 7.82028 25.6702 12.8515C25.8443 12.9594 26.0451 13.0163 26.2499 13.0156V13.0156Z" fill="white"/>
<path d="M25.2547 25.5063C25.3109 25.6226 25.3847 25.7296 25.4734 25.8235C25.5751 25.926 25.6961 26.0073 25.8294 26.0629C25.9627 26.1184 26.1056 26.147 26.25 26.147C26.3944 26.147 26.5373 26.1184 26.6706 26.0629C26.8039 26.0073 26.9249 25.926 27.0266 25.8235C27.8537 25.0486 28.3577 23.99 28.4375 22.8594C28.4379 22.6544 28.3807 22.4534 28.2724 22.2794C28.1641 22.1053 28.0091 21.9652 27.825 21.875C27.6414 21.7859 27.4366 21.75 27.2336 21.7713C27.0307 21.7925 26.8377 21.8701 26.6766 21.9953C24.0878 24.101 20.8364 25.221 17.5 25.1563C14.1712 25.2033 10.9315 24.0808 8.34531 21.9844C8.18089 21.8567 7.98341 21.7785 7.7761 21.7591C7.56879 21.7398 7.36025 21.78 7.175 21.875C6.99092 21.9652 6.83589 22.1053 6.72759 22.2794C6.6193 22.4534 6.56209 22.6544 6.5625 22.8594C6.64234 23.99 7.14629 25.0486 7.97344 25.8235C8.07512 25.926 8.19609 26.0073 8.32937 26.0629C8.46265 26.1184 8.60561 26.147 8.75 26.147C8.89439 26.147 9.03735 26.1184 9.17063 26.0629C9.30392 26.0073 9.42489 25.926 9.52656 25.8235C9.61534 25.7296 9.68912 25.6226 9.74531 25.5063C12.0182 26.7154 14.5537 27.3465 17.1281 27.3438H17.8719C20.4463 27.3465 22.9819 26.7154 25.2547 25.5063V25.5063Z" fill="white"/>
</svg>
