<svg width="35" height="35" viewBox="0 0 35 35" fill="none" xmlns="http://www.w3.org/2000/svg">
<g clip-path="url(#clip0_205_4)">
<path fill-rule="evenodd" clip-rule="evenodd" d="M30.7238 0C33.084 0 35 1.91611 35 4.27615V30.7238C35 33.0839 33.0839 35 30.7238 35H23.4458V21.8125H27.9985L28.8647 16.1645H23.4458V12.4993C23.4458 10.9542 24.2027 9.44802 26.6299 9.44802H29.0938V4.63962C29.0938 4.63962 26.8577 4.25804 24.72 4.25804C20.2569 4.25804 17.3399 6.96295 17.3399 11.8599V16.1645H12.3789V21.8125H17.3399V35H4.27615C1.91611 35 0 33.0839 0 30.7238V4.27615C0 1.91611 1.91604 0 4.27615 0H30.7238V0Z" fill="white"/>
</g>
<defs>
<clipPath id="clip0_205_4">
<rect width="35" height="35" fill="white"/>
</clipPath>
</defs>
</svg>
