<svg width="35" height="35" viewBox="0 0 35 35" fill="none" xmlns="http://www.w3.org/2000/svg">
<path d="M17.4071 10.3086C13.0861 10.3086 9.50586 13.8272 9.50586 18.2099C9.50586 22.5926 13.0244 26.1111 17.4071 26.1111C21.7898 26.1111 25.3083 22.5309 25.3083 18.2099C25.3083 13.8889 21.7281 10.3086 17.4071 10.3086ZM17.4071 23.2716C14.6293 23.2716 12.3454 20.9877 12.3454 18.2099C12.3454 15.4321 14.6293 13.1481 17.4071 13.1481C20.1849 13.1481 22.4688 15.4321 22.4688 18.2099C22.4688 20.9877 20.1849 23.2716 17.4071 23.2716Z" fill="white"/>
<path d="M25.6173 11.9136C26.6059 11.9136 27.4074 11.1121 27.4074 10.1235C27.4074 9.13481 26.6059 8.33334 25.6173 8.33334C24.6286 8.33334 23.8271 9.13481 23.8271 10.1235C23.8271 11.1121 24.6286 11.9136 25.6173 11.9136Z" fill="white"/>
<path d="M30.2468 5.49383C28.6418 3.82716 26.3579 2.96297 23.7653 2.96297H11.0492C5.67888 2.96297 2.09863 6.54321 2.09863 11.9136V24.5679C2.09863 27.2222 2.96283 29.5062 4.69123 31.1728C6.35789 32.7778 8.58011 33.5803 11.111 33.5803H23.7036C26.3579 33.5803 28.5801 32.7161 30.1851 31.1728C31.8517 29.5679 32.7159 27.284 32.7159 24.6296V11.9136C32.7159 9.32099 31.8517 7.09877 30.2468 5.49383ZM29.9999 24.6296C29.9999 26.5432 29.3209 28.0864 28.2097 29.1358C27.0986 30.1852 25.5554 30.7407 23.7036 30.7407H11.111C9.25913 30.7407 7.71592 30.1852 6.60481 29.1358C5.49369 28.0247 4.93814 26.4815 4.93814 24.5679V11.9136C4.93814 10.0617 5.49369 8.51852 6.60481 7.40741C7.65419 6.35803 9.25913 5.80247 11.111 5.80247H23.827C25.6789 5.80247 27.2221 6.35803 28.3332 7.46914C29.3826 8.58025 29.9999 10.1235 29.9999 11.9136V24.6296Z" fill="white"/>
</svg>
