<svg width="35" height="35" viewBox="0 0 35 35" fill="none" xmlns="http://www.w3.org/2000/svg">
<path d="M31.4673 8.87031C31.3969 8.78316 31.3118 8.7091 31.2157 8.65156C31.4598 8.18107 31.6295 7.67559 31.7188 7.15312C31.7533 6.94378 31.7262 6.72892 31.6408 6.53472C31.5553 6.34052 31.4152 6.17536 31.2376 6.05937C31.059 5.94176 30.8498 5.87908 30.636 5.87908C30.4222 5.87908 30.213 5.94176 30.0344 6.05937C29.2758 6.55231 28.429 6.89399 27.5407 7.06562C26.52 6.10751 25.2282 5.48819 23.842 5.29241C22.4559 5.09662 21.0431 5.33393 19.7969 5.97187C18.4962 6.65279 17.4579 7.74567 16.8444 9.07954C16.2309 10.4134 16.0768 11.913 16.4063 13.3437C16.4643 13.6338 16.6352 13.889 16.8813 14.0531C17.1275 14.2172 17.4287 14.2768 17.7188 14.2187C18.0089 14.1607 18.2641 13.9899 18.4281 13.7437C18.5922 13.4976 18.6518 13.1963 18.5938 12.9062C18.3673 11.9564 18.4586 10.9584 18.8537 10.0654C19.2489 9.17243 19.926 8.43369 20.7813 7.9625C21.7031 7.49456 22.7548 7.34804 23.7694 7.54621C24.784 7.74437 25.7033 8.27585 26.3813 9.05625C26.5053 9.1809 26.6575 9.27382 26.8251 9.32713C26.9926 9.38044 27.1706 9.39257 27.3438 9.3625H27.6173C27.4932 9.49096 27.4024 9.64786 27.353 9.81947C27.3035 9.99109 27.2969 10.1722 27.3335 10.347C27.3702 10.5218 27.4492 10.6849 27.5634 10.8222C27.6777 10.9595 27.8239 11.0666 27.9891 11.1344C27.8488 11.2495 27.7393 11.3978 27.6705 11.5658C27.6018 11.7339 27.576 11.9164 27.5954 12.0969C27.7768 14.4271 27.3842 16.7663 26.4517 18.9096C25.5193 21.0529 24.0755 22.9348 22.2469 24.3906C20.3714 26 18.102 27.082 15.6708 27.5259C13.2397 27.9699 10.7343 27.7598 8.41101 26.9172C10.2583 26.6077 11.98 25.7809 13.3766 24.5328C13.5176 24.3719 13.6082 24.1732 13.6374 23.9613C13.6665 23.7494 13.6329 23.5336 13.5407 23.3406C13.4497 23.1494 13.3052 22.9887 13.1246 22.878C12.944 22.7673 12.7352 22.7115 12.5235 22.7172C11.8998 22.7123 11.2844 22.5741 10.7184 22.3119C10.1525 22.0497 9.64921 21.6695 9.24226 21.1969C9.6236 21.1234 9.99211 20.9945 10.336 20.8141C10.5417 20.713 10.7103 20.5498 10.8183 20.3477C10.9262 20.1456 10.9679 19.9146 10.9376 19.6875C10.9082 19.4683 10.813 19.2631 10.6646 19.0991C10.5162 18.935 10.3215 18.8199 10.1063 18.7687C9.38864 18.597 8.71979 18.2633 8.15103 17.7931C7.58228 17.323 7.1287 16.7288 6.82507 16.0562C7.08757 16.0562 7.35007 16.1109 7.63444 16.1219C7.86503 16.139 8.09509 16.0825 8.29161 15.9607C8.48812 15.8389 8.64096 15.6579 8.72819 15.4437C8.80633 15.2297 8.81566 14.9966 8.75487 14.7769C8.69408 14.5573 8.56622 14.3622 8.38913 14.2187C6.56257 12.5562 6.11413 10.7734 6.37663 9.51562C8.43963 11.6994 11.1041 13.2219 14.0329 13.8906C14.1765 13.9179 14.3241 13.9166 14.4673 13.8869C14.6104 13.8571 14.7463 13.7995 14.8671 13.7172C14.988 13.6349 15.0915 13.5297 15.1717 13.4074C15.2518 13.2852 15.3072 13.1483 15.3344 13.0047C15.3617 12.8611 15.3605 12.7134 15.3307 12.5703C15.301 12.4272 15.2433 12.2913 15.161 12.1704C15.0788 12.0496 14.9735 11.9461 14.8512 11.8659C14.729 11.7857 14.5921 11.7304 14.4485 11.7031C11.4837 11.0084 8.84914 9.31258 6.98913 6.90156C6.89077 6.77688 6.76644 6.67512 6.62478 6.60335C6.48312 6.53157 6.32753 6.49151 6.16882 6.48593C6.00887 6.48001 5.84957 6.50926 5.70216 6.57163C5.55475 6.63399 5.42282 6.72795 5.31569 6.84687C4.60732 7.78046 4.19618 8.90556 4.13571 10.0759C4.07524 11.2463 4.36824 12.4077 4.97663 13.4094H4.87819C4.71651 13.4973 4.57963 13.6245 4.48021 13.7794C4.38079 13.9343 4.32206 14.1117 4.30944 14.2953C4.2916 15.2158 4.47296 16.1293 4.84109 16.9731C5.20921 17.817 5.75541 18.5713 6.44226 19.1844C6.31471 19.3325 6.22918 19.512 6.19455 19.7044C6.15993 19.8967 6.17748 20.0949 6.24538 20.2781C6.87879 21.967 8.11886 23.3591 9.72351 24.1828C8.01372 24.8262 6.20191 25.156 4.37507 25.1562C4.13637 25.1587 3.90502 25.2391 3.71633 25.3853C3.52763 25.5316 3.39195 25.7355 3.32998 25.966C3.26801 26.1965 3.28316 26.441 3.37311 26.6621C3.46307 26.8832 3.62289 27.0688 3.82819 27.1906C6.62862 28.9117 9.83861 29.8521 13.1251 29.9141C16.9721 29.87 20.684 28.4896 23.6251 26.0094C25.6558 24.3924 27.2773 22.3201 28.3585 19.9601C29.4397 17.6002 29.9501 15.0188 29.8485 12.425C30.6771 11.8054 31.2956 10.9464 31.6204 9.96406C31.6942 9.78456 31.7189 9.58865 31.692 9.39644C31.6651 9.20423 31.5875 9.02264 31.4673 8.87031V8.87031Z" fill="white"/>
</svg>
