<?xml version="1.0" standalone="no"?>
<!DOCTYPE svg PUBLIC "-//W3C//DTD SVG 20010904//EN"
 "http://www.w3.org/TR/2001/REC-SVG-20010904/DTD/svg10.dtd">
<svg version="1.0" xmlns="http://www.w3.org/2000/svg"
 width="1825.000000pt" height="954.000000pt" viewBox="0 0 1825.000000 954.000000"
 preserveAspectRatio="xMidYMid meet">

<g transform="translate(0.000000,954.000000) scale(0.100000,-0.100000)"
fill="#000000" stroke="none">
<path d="M4861 8969 c-29 -62 -91 -234 -91 -251 0 -8 -3 -18 -7 -21 -19 -19
-74 -215 -107 -382 -44 -215 -61 -466 -46 -654 12 -153 42 -310 71 -378 30
-70 26 -86 -40 -155 -119 -128 -134 -145 -187 -225 -89 -133 -165 -321 -196
-478 -19 -101 -16 -397 5 -501 30 -152 100 -329 188 -479 144 -246 416 -529
676 -703 98 -66 271 -160 356 -193 29 -11 74 -31 102 -43 27 -13 61 -27 75
-31 14 -4 50 -20 80 -36 30 -15 80 -35 110 -43 68 -20 84 -30 78 -48 -4 -9
-54 -21 -154 -36 -82 -13 -165 -27 -184 -32 -19 -5 -75 -19 -124 -31 -81 -20
-121 -33 -305 -101 -121 -44 -178 -89 -207 -164 -13 -34 -16 -65 -12 -138 6
-110 33 -169 93 -206 49 -30 105 -29 245 3 405 95 609 120 970 121 221 0 293
-3 365 -17 243 -46 390 -111 501 -222 88 -88 129 -167 151 -293 15 -80 15
-106 3 -204 -13 -115 -45 -244 -79 -321 -10 -23 -24 -58 -32 -77 -57 -155
-232 -453 -388 -660 -131 -175 -373 -467 -422 -510 -26 -23 -97 -125 -115
-168 -28 -61 -30 -96 -9 -143 19 -43 32 -59 75 -91 91 -67 256 -90 349 -48 89
41 239 180 380 354 57 71 253 351 305 436 15 25 41 68 58 95 128 208 289 560
336 735 49 184 67 325 66 535 0 176 -3 211 -23 290 -41 157 -100 284 -181 390
-83 108 -239 241 -360 307 -37 21 -45 30 -45 54 0 32 -2 31 200 64 102 17 297
59 320 70 11 5 61 23 110 40 259 90 447 187 635 325 96 70 242 208 298 280 86
113 118 163 167 260 94 191 132 330 142 525 7 147 -23 379 -57 442 -6 10 -10
26 -10 36 0 10 -4 22 -8 28 -4 5 -14 27 -21 49 -8 22 -36 85 -62 140 -27 56
-49 107 -49 113 0 7 19 29 41 50 47 42 148 190 185 269 60 132 73 164 104 258
18 55 36 109 40 120 35 90 75 266 111 490 7 44 13 159 14 255 0 162 -2 179
-24 233 -13 32 -31 62 -40 67 -16 8 -173 -1 -266 -16 -46 -7 -192 -39 -247
-54 -21 -5 -57 -15 -80 -21 -93 -25 -284 -95 -298 -109 -3 -3 -25 -11 -50 -17
-85 -22 -424 -197 -541 -280 -93 -65 -125 -94 -179 -163 -24 -30 -50 -60 -58
-67 -16 -13 -60 -8 -107 13 -83 37 -290 93 -425 114 -30 5 -82 14 -115 20
-104 19 -235 31 -410 38 l-170 7 -35 70 c-19 39 -45 84 -58 102 -12 17 -22 34
-22 38 0 11 -60 95 -135 190 -150 188 -359 377 -576 523 -117 78 -274 171
-342 202 -34 15 -92 41 -128 58 -36 17 -87 33 -112 37 l-46 7 -20 -43z m132
-44 c404 -146 883 -515 1162 -895 67 -92 128 -215 112 -228 -7 -5 -64 -13
-129 -17 l-116 -7 -45 67 c-109 162 -323 373 -489 481 -108 71 -235 126 -291
128 -43 1 -52 -3 -73 -29 -70 -87 -125 -287 -159 -574 -18 -152 -19 -245 -3
-348 l11 -77 -29 -23 c-145 -111 -190 -140 -201 -131 -13 11 -44 108 -62 193
-5 28 -15 119 -22 202 -30 375 56 874 210 1216 16 37 35 67 42 67 6 0 43 -11
82 -25z m352 -580 c137 -68 311 -209 465 -381 44 -48 130 -169 130 -182 0 -10
-46 -23 -145 -42 -202 -37 -433 -115 -625 -209 -57 -28 -109 -51 -116 -51 -7
0 -16 16 -20 36 -11 61 3 442 20 534 24 126 64 260 92 303 22 33 29 37 66 37
30 0 69 -13 133 -45z m3924 -72 c32 -27 46 -162 32 -312 -33 -342 -141 -728
-286 -1026 -74 -153 -156 -270 -188 -270 -16 0 -157 176 -157 197 0 5 16 28
35 50 78 92 165 301 200 483 22 112 25 302 6 368 -19 64 -40 77 -126 77 -235
0 -575 -124 -786 -286 -46 -36 -93 -71 -105 -79 -19 -14 -31 -10 -145 39 -68
30 -125 59 -127 65 -12 35 100 150 224 231 99 65 380 203 544 268 395 156 813
249 879 195z m-442 -520 c14 -49 7 -235 -11 -323 -36 -171 -96 -330 -163 -432
-41 -61 -54 -59 -141 23 -108 101 -233 196 -402 307 l-145 95 48 43 c109 98
278 192 457 252 170 58 178 60 267 61 82 1 83 1 90 -26z m-2092 -38 c524 -59
995 -223 1384 -483 167 -111 245 -175 376 -306 237 -238 385 -490 462 -786 35
-133 43 -355 18 -501 -19 -117 -76 -284 -129 -386 -203 -382 -650 -710 -1157
-847 -155 -42 -321 -75 -393 -78 l-67 -3 -19 55 c-65 190 -364 252 -553 113
l-48 -35 -50 51 c-60 61 -122 95 -207 111 -162 32 -321 -24 -387 -136 -14 -24
-27 -44 -29 -44 -18 0 -289 101 -391 145 -292 127 -531 288 -737 496 -280 284
-437 577 -493 924 -95 581 257 1157 900 1469 255 124 562 208 895 245 127 14
485 12 625 -4z m-319 -3194 c89 -40 134 -98 134 -174 0 -58 -31 -104 -92 -135
-62 -32 -83 -25 -74 27 7 46 -7 91 -28 91 -23 0 -36 -33 -36 -89 0 -55 -14
-71 -56 -63 -23 4 -24 8 -24 77 0 52 -4 74 -13 78 -24 9 -38 -9 -44 -54 -3
-24 -10 -52 -15 -62 -8 -15 -12 -16 -36 -3 -45 23 -110 101 -117 139 -30 156
205 254 401 168z m584 -42 c88 -22 158 -107 145 -176 -11 -59 -126 -156 -153
-129 -3 4 -9 28 -12 54 -4 38 -9 47 -25 47 -21 0 -30 -20 -40 -87 -6 -37 -7
-38 -45 -38 l-40 0 0 60 c0 47 -4 62 -16 67 -22 8 -44 -22 -44 -59 0 -37 -21
-44 -60 -21 -90 52 -93 171 -7 237 77 59 180 75 297 45z"/>
<path d="M5182 7125 c-36 -30 -106 -179 -132 -279 -49 -191 -8 -449 101 -632
48 -83 180 -213 266 -263 40 -24 105 -54 145 -69 64 -23 89 -26 203 -26 98 -1
145 4 190 18 165 50 321 168 401 305 24 41 44 87 44 102 0 35 -40 87 -156 200
-282 274 -564 467 -904 618 -115 52 -126 53 -158 26z m199 -135 c147 -69 348
-182 361 -203 4 -6 -19 -34 -54 -66 -69 -63 -115 -129 -148 -216 -18 -48 -23
-81 -23 -160 -1 -92 2 -106 30 -168 39 -83 124 -175 192 -207 107 -50 45 -68
-105 -30 -258 65 -456 269 -534 552 -25 92 -27 267 -4 371 17 72 54 168 76
194 16 20 37 13 209 -67z m553 -446 c24 -9 19 -50 -11 -96 -24 -36 -28 -52
-28 -114 0 -80 15 -112 73 -149 89 -58 39 -144 -58 -100 -86 39 -134 127 -134
245 0 92 29 159 83 196 37 25 49 28 75 18z m286 -194 c61 -61 -34 -137 -97
-78 -13 12 -23 30 -23 40 0 28 36 58 70 58 17 0 39 -9 50 -20z"/>
<path d="M6420 7105 c-21 -25 4 -87 50 -129 48 -43 85 -47 102 -11 13 30 -10
90 -50 130 -28 29 -82 34 -102 10z"/>
<path d="M7296 6834 c-51 -18 -76 -41 -76 -70 0 -62 134 -53 194 14 18 20 18
21 -8 46 -28 29 -53 31 -110 10z"/>
<path d="M8175 6363 c-403 -48 -775 -156 -975 -285 -83 -53 -84 -55 -77 -156
11 -178 75 -331 181 -435 170 -165 410 -182 652 -47 78 43 213 163 268 239 82
112 153 268 182 404 22 100 24 264 4 277 -14 9 -169 11 -235 3z m-285 -194 c9
-17 7 -31 -9 -69 -37 -86 -23 -149 47 -212 39 -35 65 -45 142 -50 28 -3 37 -8
45 -32 8 -25 6 -31 -18 -52 -21 -17 -40 -24 -72 -24 -141 0 -273 126 -283 272
-8 103 42 188 109 188 18 0 32 -7 39 -21z m-300 -33 c0 -7 -9 -34 -20 -59 -41
-91 -36 -238 11 -334 50 -103 157 -193 254 -213 30 -6 57 -16 61 -21 8 -13
-92 -57 -162 -70 -277 -52 -490 139 -520 467 l-7 71 34 25 c40 29 79 48 219
105 115 46 130 50 130 29z m604 -28 c21 -30 20 -54 -4 -78 -40 -40 -103 -16
-103 38 0 42 19 62 59 62 23 0 38 -7 48 -22z"/>
<path d="M5021 5798 c-65 -18 -121 -66 -148 -125 -98 -214 149 -502 412 -481
146 12 246 125 232 263 -22 215 -292 402 -496 343z m210 -105 c60 -28 123 -85
157 -141 23 -39 27 -59 27 -119 0 -62 -3 -75 -25 -98 -99 -108 -314 -50 -409
110 -29 48 -35 67 -35 118 -1 75 20 111 79 139 50 24 141 20 206 -9z"/>
<path d="M8255 5396 c-32 -49 24 -92 82 -64 31 15 42 50 23 74 -7 8 -30 14
-51 14 -30 0 -42 -6 -54 -24z"/>
<path d="M6444 5343 l-62 -66 -54 5 c-35 3 -65 12 -85 27 -41 30 -73 22 -73
-20 0 -24 8 -35 47 -59 80 -51 174 -38 261 35 l31 26 21 -41 c26 -50 87 -96
158 -116 85 -25 182 -2 182 42 0 32 -28 45 -76 34 -43 -10 -101 1 -140 27 -31
20 -64 74 -64 104 0 37 -27 69 -58 69 -20 -1 -42 -17 -88 -67z"/>
<path d="M7525 5202 c-119 -9 -247 -87 -300 -183 -24 -45 -29 -65 -29 -124 0
-59 4 -78 26 -116 33 -57 79 -98 144 -130 43 -21 63 -24 159 -24 103 0 114 2
176 31 130 62 199 155 199 268 0 177 -159 294 -375 278z m148 -102 c142 -53
178 -185 81 -299 -57 -68 -195 -112 -287 -91 -64 15 -129 51 -150 84 -56 85
-23 210 71 268 96 59 193 72 285 38z"/>
<path d="M2620 5520 c-168 -18 -276 -31 -340 -41 -266 -41 -417 -75 -455 -104
-38 -28 -73 -98 -125 -250 -79 -228 -137 -390 -168 -470 -17 -44 -48 -132 -70
-195 -65 -187 -93 -264 -102 -285 -5 -11 -25 -67 -46 -125 -20 -58 -40 -114
-44 -125 -8 -19 -20 -52 -95 -265 -19 -52 -50 -140 -70 -195 -21 -55 -44 -120
-52 -145 -14 -44 -23 -66 -43 -112 -5 -13 -27 -75 -49 -138 -22 -63 -54 -153
-71 -200 -17 -47 -37 -103 -44 -125 -7 -22 -29 -83 -49 -135 -19 -52 -52 -142
-72 -200 -38 -111 -71 -202 -85 -235 -5 -11 -25 -69 -46 -130 -20 -60 -45
-128 -54 -150 -9 -22 -23 -58 -30 -80 -16 -53 -79 -225 -90 -250 -5 -11 -22
-60 -39 -110 -16 -49 -56 -157 -89 -240 -62 -157 -87 -260 -73 -298 22 -57
101 -102 251 -143 120 -33 146 -32 375 11 205 39 583 161 790 255 28 12 79 36
115 52 96 43 287 138 350 174 30 17 89 49 130 71 69 36 278 158 325 190 441
292 717 498 888 662 79 76 393 413 482 516 33 39 67 77 75 85 9 8 47 56 85
105 38 50 72 92 76 95 28 22 209 358 209 388 0 4 15 47 34 97 57 149 105 311
130 440 50 255 45 519 -15 740 -6 22 -13 50 -16 63 -11 45 -116 248 -161 312
-83 118 -171 206 -262 265 -85 55 -303 135 -445 164 -33 7 -78 17 -100 22
-137 31 -264 41 -540 44 -159 2 -328 -1 -375 -5z m664 -650 c296 -50 436 -137
525 -324 58 -120 74 -192 74 -326 0 -121 -8 -164 -64 -340 -88 -275 -299 -593
-630 -948 -230 -248 -469 -449 -894 -754 -259 -186 -756 -464 -1013 -569 -90
-36 -108 -33 -92 20 8 27 363 1010 430 1191 21 58 69 188 105 290 37 102 103
284 147 405 219 602 385 1065 408 1140 19 62 61 122 100 144 58 32 151 51 390
81 134 16 391 11 514 -10z"/>
<path d="M11760 5367 c-95 -28 -128 -84 -165 -283 -32 -171 -62 -324 -74 -384
-6 -25 -15 -70 -21 -100 -5 -30 -29 -149 -51 -265 -23 -115 -45 -230 -50 -255
-4 -25 -24 -128 -44 -230 -19 -102 -38 -198 -41 -215 -3 -16 -9 -48 -14 -70
-5 -22 -21 -103 -35 -180 -15 -77 -48 -250 -75 -385 -26 -135 -60 -308 -74
-385 -15 -77 -31 -160 -37 -185 -17 -75 -27 -122 -38 -185 -16 -92 -80 -415
-90 -460 -5 -22 -14 -67 -20 -100 -6 -33 -26 -139 -45 -235 -78 -407 -80 -453
-23 -507 52 -50 88 -63 170 -63 98 0 164 21 219 70 57 49 95 126 113 227 8 43
19 101 25 128 5 28 14 75 20 105 5 30 13 75 18 100 8 38 63 314 103 510 6 30
15 73 20 95 4 22 25 123 44 225 20 102 40 205 46 230 20 96 61 301 84 420 23
120 48 247 79 395 13 63 66 326 86 430 21 108 65 330 102 510 22 110 43 211
45 225 45 229 86 429 99 485 8 39 16 100 17 136 1 57 -2 71 -25 101 -63 82
-250 131 -368 95z"/>
<path d="M17625 4618 c-35 -41 -44 -66 -61 -161 -22 -121 -65 -187 -132 -204
-37 -9 -100 29 -142 84 -101 134 -282 189 -433 133 -51 -19 -76 -41 -144 -129
-31 -39 -61 -174 -62 -279 l-1 -42 -47 23 c-127 64 -241 99 -397 122 -88 14
-105 14 -151 1 -109 -32 -165 -124 -165 -272 0 -104 45 -162 139 -179 20 -3
80 -20 134 -37 145 -46 173 -87 143 -209 -15 -61 -15 -72 -2 -104 17 -41 55
-59 103 -50 36 6 64 38 93 102 13 30 25 43 39 43 48 0 160 -170 215 -330 32
-91 46 -219 25 -221 -18 -2 -9 -3 -122 15 -113 19 -340 21 -471 5 -172 -21
-293 -46 -521 -110 -131 -37 -384 -146 -525 -227 -97 -55 -208 -138 -271 -202
-95 -97 -117 -155 -84 -219 16 -32 33 -41 76 -41 24 0 50 19 127 93 180 170
333 258 644 372 99 36 173 57 263 76 28 6 68 15 90 20 138 31 219 41 370 46
177 6 268 -3 364 -34 79 -25 85 -39 66 -159 -36 -237 -95 -397 -235 -634 -104
-177 -295 -390 -351 -390 -27 0 -133 92 -181 158 -23 31 -58 86 -78 122 -59
108 -132 137 -187 74 -35 -39 -30 -89 17 -180 48 -93 105 -170 183 -246 64
-63 69 -86 24 -102 -37 -13 -79 10 -166 91 -102 93 -187 221 -247 372 -28 68
-34 97 -34 157 0 100 11 119 92 160 204 103 386 157 596 178 115 11 136 16
157 36 36 34 34 92 -3 129 -32 32 -108 47 -189 36 -217 -28 -267 -41 -478
-124 -265 -104 -536 -270 -734 -450 -142 -130 -163 -150 -220 -223 -66 -85
-83 -87 -110 -13 -75 199 -105 517 -58 610 8 17 22 46 31 65 31 68 121 157
275 272 20 15 41 31 46 35 86 70 352 212 539 289 78 32 315 94 360 94 75 0
136 46 136 103 0 62 -46 97 -128 97 -28 0 -54 6 -60 13 -5 6 -22 52 -37 101
-31 103 -62 173 -105 236 -16 25 -30 48 -30 52 0 4 23 31 50 58 64 64 70 81
70 186 0 226 -76 284 -310 240 -467 -90 -974 -540 -1220 -1084 -127 -280 -181
-517 -205 -892 -8 -111 5 -277 31 -418 69 -380 304 -716 626 -899 110 -63 223
-105 373 -141 99 -23 130 -26 300 -26 202 0 302 15 475 68 597 186 1138 698
1369 1296 86 222 113 328 135 528 20 177 20 255 1 412 -43 342 -160 592 -387
824 l-98 101 0 71 c0 100 37 205 88 249 65 56 144 32 262 -79 96 -90 175 -119
281 -104 94 12 164 47 227 111 76 77 102 150 102 284 0 105 -9 142 -48 186
-25 29 -76 22 -107 -15z m93 -92 c-3 -28 -6 -30 -41 -32 -23 0 -41 4 -44 12
-5 14 11 49 36 77 15 18 16 18 34 -4 11 -14 17 -35 15 -53z m-700 -123 c4 -44
-12 -70 -48 -78 -25 -5 -37 0 -75 30 -25 21 -45 41 -45 45 0 11 48 29 90 33
66 8 75 4 78 -30z m686 1 c20 -19 20 -64 2 -108 -21 -50 -33 -52 -75 -11 -37
37 -38 38 -27 77 7 22 19 44 27 49 22 14 56 11 73 -7z m-531 -29 c30 -21 37
-32 37 -59 0 -19 -7 -40 -16 -47 -14 -11 -22 -10 -52 8 -48 27 -56 42 -48 86
8 45 26 47 79 12z m-327 -70 c11 -17 9 -26 -16 -67 -28 -44 -32 -47 -62 -41
-47 8 -53 17 -38 55 26 64 41 79 73 76 16 -2 36 -12 43 -23z m502 -89 c37 -19
40 -38 12 -66 -27 -27 -56 -25 -97 6 -40 31 -41 48 -5 79 22 20 29 21 42 10 8
-7 30 -20 48 -29z m242 25 c15 -30 12 -66 -8 -84 -26 -23 -87 -47 -121 -47
l-30 0 16 43 c11 31 29 51 62 74 55 37 67 39 81 14z m-830 -101 c18 -18 20
-31 18 -93 -3 -67 -5 -72 -26 -75 -13 -2 -34 4 -48 12 -22 15 -24 23 -24 86 0
55 3 71 18 79 26 15 40 13 62 -9z m-1329 -593 c42 -32 124 -206 129 -272 4
-56 1 -62 -45 -80 -55 -21 -67 -14 -85 51 -7 25 -28 61 -45 80 -27 28 -40 34
-74 34 -33 0 -47 -6 -67 -27 -24 -26 -25 -33 -19 -88 3 -33 7 -82 8 -108 l2
-48 -65 -36 c-141 -76 -248 -139 -323 -190 -90 -61 -113 -67 -102 -25 9 40 97
183 177 290 111 150 284 313 424 401 53 34 62 36 85 18z m-81 -1722 c27 -105
72 -203 144 -315 55 -85 66 -99 149 -185 37 -39 67 -79 67 -88 0 -29 -66 -50
-216 -67 -228 -25 -479 53 -631 197 -51 49 -54 72 -14 134 48 74 146 184 167
187 16 2 23 -6 34 -40 29 -89 95 -190 141 -214 44 -22 96 -18 124 11 35 34 33
81 -6 135 -56 77 -82 146 -83 221 -1 62 1 70 29 99 50 52 66 40 95 -75z"/>
<path d="M13115 4164 c-187 -27 -423 -150 -660 -344 -190 -156 -447 -415 -501
-507 -30 -50 -40 -83 -59 -188 -50 -274 42 -428 212 -355 40 17 87 58 219 193
186 190 291 281 434 379 151 104 328 179 377 161 34 -12 85 -57 95 -82 35 -93
48 -292 28 -434 -6 -40 -15 -108 -21 -152 -19 -142 -75 -395 -144 -650 -42
-158 -183 -583 -226 -680 -4 -11 -24 -61 -44 -112 -19 -51 -49 -123 -67 -160
-25 -53 -32 -81 -33 -130 0 -57 3 -65 34 -97 73 -75 275 -101 378 -48 80 41
109 83 179 252 168 412 305 825 403 1220 61 249 94 528 95 815 1 235 -7 293
-59 465 -68 227 -201 378 -385 440 -37 12 -204 21 -255 14z"/>
<path d="M8535 4084 c-196 -48 -210 -65 -264 -314 -6 -30 -35 -156 -62 -280
-28 -124 -59 -263 -69 -310 -10 -47 -35 -157 -55 -245 -21 -88 -45 -198 -55
-245 -10 -47 -30 -139 -45 -205 -26 -117 -55 -244 -75 -335 -12 -56 -19 -85
-129 -582 -50 -224 -91 -421 -91 -437 0 -151 91 -244 240 -244 36 0 83 5 106
11 64 19 130 68 153 115 19 40 64 214 111 427 12 52 34 149 50 215 26 106 119
501 140 595 21 93 64 284 106 460 97 414 133 568 154 660 11 52 30 133 41 180
40 166 59 266 59 310 0 52 -27 115 -61 147 -56 51 -192 92 -254 77z"/>
<path d="M10040 4031 c-144 -21 -321 -86 -495 -183 -98 -54 -265 -164 -320
-209 -11 -10 -56 -46 -100 -81 -102 -80 -182 -163 -222 -230 -44 -72 -73 -191
-80 -324 -5 -97 -3 -116 15 -157 24 -55 70 -87 124 -87 65 0 90 15 233 146
201 183 460 350 625 405 81 27 217 36 262 19 108 -43 158 -173 158 -416 0 -77
-4 -165 -9 -195 -5 -30 -14 -88 -21 -129 -30 -192 -142 -572 -240 -819 -20
-53 -43 -114 -50 -136 -14 -44 -110 -261 -188 -425 -119 -252 -81 -350 137
-350 125 0 207 28 268 92 61 63 284 550 412 901 139 381 196 606 260 1034 14
89 14 429 1 486 -47 207 -76 291 -134 381 -79 124 -191 214 -317 256 -72 23
-230 34 -319 21z"/>
<path d="M6010 3010 c-371 -28 -765 -164 -1094 -377 -127 -83 -188 -132 -310
-251 -140 -138 -257 -299 -315 -435 -80 -187 -86 -440 -13 -597 98 -211 298
-359 577 -426 87 -21 269 -44 344 -44 165 1 484 52 569 93 54 25 132 101 170
167 24 40 27 55 26 140 0 82 -4 103 -28 152 -48 102 -108 129 -237 109 -106
-18 -326 -16 -415 3 -213 45 -303 109 -312 222 -7 84 37 165 152 279 154 151
378 270 665 351 161 45 264 58 461 59 203 0 253 -8 385 -65 83 -35 128 -37
173 -10 75 46 164 171 183 256 24 107 -22 176 -161 246 -138 69 -320 113 -525
129 -132 9 -156 9 -295 -1z m-640 -1590 c27 -27 25 -56 -5 -85 -28 -29 -51
-31 -83 -9 -27 18 -30 69 -5 96 21 24 68 23 93 -2z m294 -44 c46 -19 78 -75
78 -135 0 -96 -63 -162 -162 -169 -55 -4 -60 -2 -96 30 -34 32 -38 41 -42 96
-10 140 100 229 222 178z m-402 -133 c22 -20 24 -76 2 -93 -20 -18 -72 -17
-88 1 -26 26 -27 55 -5 82 24 31 63 35 91 10z m130 -170 c38 -34 11 -103 -40
-103 -54 0 -81 62 -45 102 20 22 61 23 85 1z"/>
</g>
</svg>
